<?xml version="1.0" standalone="no"?>
<!DOCTYPE svg PUBLIC "-//W3C//DTD SVG 20010904//EN"
 "http://www.w3.org/TR/2001/REC-SVG-20010904/DTD/svg10.dtd">
<svg version="1.0" xmlns="http://www.w3.org/2000/svg"
 width="595.000000pt" height="595.000000pt" viewBox="0 0 595.000000 595.000000"
 preserveAspectRatio="xMidYMid meet">

<g transform="translate(0.000000,595.000000) scale(0.100000,-0.100000)"
fill="#000000" stroke="none">
<path d="M2620 5039 c-235 -50 -546 -183 -647 -278 -39 -35 -45 -84 -14 -101
31 -16 124 -12 232 10 275 56 649 234 672 320 17 64 -81 84 -243 49z m120 -67
c0 -5 -19 -19 -42 -33 -165 -94 -510 -210 -621 -209 -31 1 -31 1 -12 16 28 22
174 90 276 129 143 55 260 86 392 104 4 1 7 -3 7 -7z"/>
<path d="M2512 4725 c-91 -20 -200 -77 -254 -133 -94 -96 -164 -224 -190 -345
-13 -62 -6 -166 16 -230 l17 -47 -33 -40 c-22 -27 -46 -43 -73 -50 -47 -13
-453 -152 -526 -180 -28 -11 -54 -18 -59 -15 -12 7 -264 -80 -306 -106 -55
-34 -84 -94 -96 -201 -14 -124 -1 -191 47 -238 29 -28 44 -34 91 -38 73 -6
127 12 169 59 53 59 56 113 18 277 -11 49 -14 78 -7 88 11 18 128 71 274 124
58 21 154 57 215 79 60 22 111 38 113 36 3 -2 -10 -38 -28 -78 -29 -67 -36
-76 -69 -86 -94 -28 -286 -161 -297 -206 -17 -67 69 -126 186 -128 64 -1 70
-3 70 -22 0 -22 35 -85 47 -85 23 -1 33 -23 44 -90 63 -408 445 -782 873 -855
174 -29 370 -10 551 56 105 38 296 162 385 250 172 170 270 386 286 629 6 85
-7 255 -22 294 -4 10 7 21 33 34 21 11 58 37 81 58 37 33 45 46 49 85 4 33 1
50 -11 61 -14 15 -12 19 32 44 76 44 109 73 142 122 38 58 40 105 4 128 -22
15 -45 16 -182 10 -86 -4 -165 -8 -176 -9 -17 -2 -18 7 -17 153 1 85 6 173 11
195 5 22 11 51 12 64 3 21 22 30 163 82 88 33 166 67 173 76 16 23 15 68 -3
83 -25 21 -76 13 -185 -28 -124 -47 -160 -56 -160 -42 0 16 -77 50 -115 50
-49 0 -163 -37 -202 -66 -26 -20 -39 -23 -76 -18 -57 8 -174 -25 -204 -58 -31
-33 -56 -96 -49 -124 14 -54 -52 2 -90 77 -15 31 -60 87 -103 130 -153 154
-365 218 -569 174z m252 -81 c92 -24 179 -70 249 -134 61 -56 108 -123 95
-135 -24 -25 -212 -33 -313 -14 -55 10 -194 73 -260 118 -39 27 -75 28 -75 2
0 -29 78 -103 144 -136 l60 -30 -34 -3 c-114 -11 -258 64 -323 167 l-21 34 37
32 c116 100 286 139 441 99z m1086 -128 c38 -41 10 -74 -35 -40 -19 14 -20 13
-25 -12 -7 -37 -22 -40 -58 -9 -16 14 -33 25 -36 25 -3 0 -6 -18 -6 -40 0 -45
-11 -51 -34 -18 -24 34 -20 57 12 64 15 4 37 14 50 22 12 8 32 12 43 9 12 -3
28 0 36 9 20 19 26 18 53 -10z m-311 -82 c55 -39 63 -127 31 -332 -25 -153
-38 -198 -80 -283 -47 -93 -108 -174 -191 -255 -71 -68 -193 -164 -209 -164
-4 0 -13 21 -19 47 -7 25 -32 77 -56 114 l-44 69 47 27 c26 15 76 50 112 77
145 109 223 207 278 346 48 121 48 113 -1 168 -51 57 -63 93 -46 134 23 56
128 87 178 52z m-1242 -82 c23 -33 18 -139 -12 -224 -25 -73 -82 -161 -99
-155 -20 6 -37 119 -33 217 4 94 21 154 64 219 l15 24 24 -29 c14 -16 32 -39
41 -52z m1533 -164 c0 -188 -10 -272 -39 -331 -26 -53 -108 -153 -160 -195
l-39 -32 -26 46 c-30 53 -32 71 -12 100 22 30 83 213 100 296 8 40 17 110 21
155 7 81 7 82 37 88 16 4 41 13 56 21 61 32 62 30 62 -148z m-628 85 c24 -29
29 -53 17 -95 -12 -48 -22 -41 -38 27 -7 28 -14 58 -17 68 -3 10 0 17 9 17 8
0 21 -8 29 -17z m-717 -26 c39 -16 80 -21 188 -25 l137 -4 0 23 0 24 134 0
c158 1 146 11 172 -137 18 -105 15 -159 -15 -239 -44 -116 -129 -182 -296
-230 -124 -36 -178 -35 -263 1 -62 27 -198 163 -235 236 l-25 50 30 49 c36 58
75 167 84 237 6 40 10 48 23 42 9 -3 39 -16 66 -27z m835 -67 c0 -5 -4 -10
-10 -10 -5 0 -10 5 -10 10 0 6 5 10 10 10 6 0 10 -4 10 -10z m894 -279 c10
-15 -84 -88 -160 -126 -39 -19 -107 -44 -150 -56 -44 -11 -83 -25 -88 -30 -16
-14 41 -29 114 -29 80 0 100 -6 100 -29 0 -25 -37 -56 -95 -82 -39 -17 -75
-23 -167 -27 -65 -3 -118 -7 -118 -9 0 -2 4 -13 10 -23 10 -18 33 -28 118 -50
24 -6 42 -17 42 -25 0 -7 -24 -25 -54 -40 -51 -25 -57 -26 -115 -14 -63 12
-84 8 -63 -13 7 -7 12 -22 12 -35 0 -22 -3 -24 -31 -27 -8 -1 -59 105 -59 125
0 8 83 98 206 222 108 110 156 175 169 229 6 23 14 28 48 33 112 14 274 18
281 6z m-1978 -48 c5 -10 20 -35 33 -55 18 -30 20 -38 8 -38 -25 0 -77 50 -77
74 0 38 18 47 36 19z m1267 -243 c21 -50 21 -49 -5 -77 -28 -30 -32 -29 -56
11 -20 34 -20 35 -1 52 10 9 21 25 24 35 9 28 18 23 38 -21z m-1288 -21 c22
-6 85 -33 141 -61 56 -27 119 -52 141 -55 l40 -5 -5 -77 c-3 -68 -1 -82 25
-131 l28 -55 -66 -67 c-57 -60 -69 -68 -102 -68 -22 0 -40 6 -43 14 -3 7 13
40 35 72 85 124 58 152 -48 51 -73 -69 -123 -97 -169 -97 -85 0 -81 29 13 114
55 50 75 74 75 92 0 31 -15 28 -97 -22 -109 -66 -221 -92 -274 -64 -33 18 -21
38 44 76 174 102 182 146 15 83 -64 -24 -105 -32 -180 -36 -94 -5 -158 6 -158
27 0 28 220 160 335 201 58 20 189 25 250 8z m689 -32 c12 -12 34 -43 48 -67
28 -50 64 -180 56 -202 -9 -23 -124 -78 -177 -85 -110 -13 -187 37 -211 136
-10 45 -10 58 4 94 27 72 81 117 163 136 65 15 93 12 117 -12z m-1664 -54 c0
-27 7 -69 15 -95 21 -70 29 -162 16 -184 -8 -15 -10 -6 -11 46 0 36 -3 82 -6
102 -12 70 -24 27 -24 -83 0 -75 -4 -109 -11 -109 -9 0 -10 44 -7 165 5 130 3
165 -7 165 -16 0 -28 -116 -26 -247 0 -74 -2 -93 -13 -93 -11 0 -14 9 -11 33
2 17 7 93 9 166 l6 135 -23 -22 c-20 -21 -22 -34 -25 -158 -3 -114 -6 -133
-18 -123 -17 14 -20 184 -4 238 12 41 45 79 85 97 49 22 55 18 55 -33z m2155
-54 c133 -262 160 -595 73 -914 l-33 -120 -50 -27 c-28 -14 -99 -43 -160 -64
-102 -35 -120 -38 -247 -42 -80 -3 -165 1 -205 8 -140 24 -299 91 -413 173
-57 41 -190 166 -190 178 0 4 50 23 110 43 188 60 431 187 563 293 93 75 90
83 -25 57 -23 -5 -29 -1 -47 35 -12 22 -21 44 -21 48 0 4 35 8 78 9 46 0 92 7
113 16 49 21 114 82 145 133 13 23 48 58 77 78 29 20 84 63 122 96 38 32 73
57 78 54 4 -2 19 -27 32 -54z m-745 -319 c16 -38 9 -56 -26 -64 -41 -11 -48 5
-28 63 18 56 31 56 54 1z"/>
<path d="M2885 4212 c-33 -8 -72 -40 -84 -71 -31 -73 18 -112 54 -44 24 45 60
54 111 27 32 -17 35 -17 51 -1 16 16 15 18 -8 43 -37 39 -82 56 -124 46z"/>
<path d="M2456 4038 c-49 -37 -76 -141 -41 -154 21 -8 45 14 45 40 0 26 39 66
64 66 9 0 31 -7 48 -16 27 -14 32 -14 45 -1 32 31 -32 87 -99 87 -18 0 -46
-10 -62 -22z"/>
<path d="M2849 3982 c-45 -36 -126 -71 -178 -78 -45 -6 -51 -9 -51 -31 0 -55
107 -103 183 -82 39 10 103 75 112 112 4 13 5 39 3 58 -4 41 -32 50 -69 21z"/>
<path d="M1280 2999 c-45 -18 -78 -59 -90 -110 -16 -67 -6 -113 36 -158 44
-50 82 -65 145 -59 86 9 140 64 147 152 5 65 -20 118 -73 154 -38 27 -126 38
-165 21z m113 -70 c59 -30 76 -106 34 -155 -19 -22 -32 -27 -68 -27 -56 0 -87
16 -104 55 -35 84 57 168 138 127z"/>
<path d="M1110 2705 c0 -60 30 -136 96 -242 55 -87 112 -155 147 -174 38 -21
16 41 -46 133 -35 51 -92 146 -126 211 -35 64 -65 117 -67 117 -2 0 -4 -20 -4
-45z"/>
<path d="M1509 2604 c-12 -15 -5 -24 56 -81 81 -75 168 -129 285 -178 95 -41
115 -43 131 -13 10 18 8 24 -7 35 -10 7 -22 13 -27 13 -19 0 -144 55 -202 88
-33 19 -94 62 -136 94 -42 32 -78 58 -81 58 -3 0 -12 -7 -19 -16z"/>
<path d="M1335 2569 c-10 -15 32 -74 116 -165 106 -114 167 -163 183 -147 18
18 -2 48 -81 124 -49 46 -110 110 -136 142 -47 56 -69 68 -82 46z"/>
<path d="M4055 2394 l-17 -26 -14 21 c-9 12 -22 21 -30 21 -13 0 -12 -6 5 -34
12 -18 21 -43 21 -55 0 -35 14 -24 43 34 27 56 22 84 -8 39z"/>
<path d="M4240 2360 c0 -47 3 -60 15 -60 10 0 15 10 15 33 l1 32 29 -35 c37
-43 52 -32 48 36 -2 36 -7 49 -18 49 -11 0 -14 -8 -12 -30 l4 -30 -34 33 c-19
17 -37 32 -41 32 -4 0 -7 -27 -7 -60z"/>
<path d="M4387 2414 c-4 -4 -7 -31 -7 -61 0 -40 4 -53 15 -53 10 0 15 10 15
27 0 26 1 26 14 7 14 -19 15 -18 41 6 l27 25 -7 -34 c-5 -26 -4 -32 6 -29 23
8 24 118 1 118 -4 0 -16 -14 -26 -32 l-19 -31 -26 32 c-15 18 -30 29 -34 25z"/>
<path d="M4567 2378 c-8 -24 -18 -51 -22 -60 -5 -13 -2 -18 9 -18 9 0 16 5 16
10 0 14 43 13 58 -2 6 -6 14 -9 18 -6 6 7 -41 104 -55 112 -5 3 -16 -13 -24
-36z m43 -29 c0 -6 -4 -7 -10 -4 -5 3 -10 11 -10 16 0 6 5 7 10 4 6 -3 10 -11
10 -16z"/>
<path d="M3840 2355 c0 -30 5 -55 10 -55 6 0 10 12 10 28 1 25 2 26 14 9 12
-16 15 -16 29 -2 22 21 27 19 27 -10 0 -16 6 -25 15 -25 12 0 15 13 15 55 0
61 -16 73 -44 33 l-16 -22 -23 22 c-13 12 -26 22 -30 22 -4 0 -7 -25 -7 -55z"/>
<path d="M4117 2355 c-21 -43 -24 -55 -12 -55 8 0 15 5 15 10 0 14 53 13 68
-2 23 -23 25 2 4 49 -11 27 -27 49 -34 51 -8 1 -25 -21 -41 -53z m43 -1 c0 -8
-5 -12 -10 -9 -6 4 -8 11 -5 16 9 14 15 11 15 -7z"/>
<path d="M4673 2358 c1 -30 7 -53 15 -56 6 -2 12 3 12 12 0 20 26 21 34 1 3
-8 13 -15 22 -15 14 0 14 3 4 15 -11 13 -11 20 0 40 18 34 -1 55 -51 55 l-39
0 3 -52z m65 20 c-7 -19 -38 -22 -38 -4 0 10 9 16 21 16 12 0 19 -5 17 -12z"/>
<path d="M2207 1950 l6 -135 -94 109 c-52 59 -100 119 -107 132 -11 20 -20 24
-60 24 l-47 0 -1 -205 c-1 -112 -5 -216 -8 -230 -6 -25 -6 -25 52 -25 l59 0 7
83 c4 46 4 102 0 125 -4 25 -3 42 3 42 9 0 121 -113 196 -197 31 -36 43 -43
74 -43 l38 0 -7 177 c-3 98 -4 199 -1 225 l5 46 -61 4 -61 3 7 -135z"/>
<path d="M3265 2066 c-100 -42 -145 -110 -145 -221 1 -91 51 -164 145 -206 85
-39 254 -13 282 42 7 13 13 61 13 107 l0 82 -52 0 c-29 0 -77 3 -105 6 l-53 7
0 -40 c0 -50 13 -62 61 -56 36 5 39 4 39 -19 0 -36 -19 -48 -77 -48 -94 0
-145 47 -147 136 -1 51 15 83 57 111 49 32 93 38 137 18 30 -13 47 -15 77 -8
33 8 38 12 38 38 0 25 -7 33 -39 49 -21 10 -68 21 -105 23 -54 3 -77 -1 -126
-21z"/>
<path d="M1324 1958 c-26 -68 -66 -169 -90 -225 -24 -56 -44 -104 -44 -107 0
-3 24 -6 54 -6 54 0 54 0 70 40 l16 41 103 -3 102 -3 18 -37 17 -38 65 0 c36
0 65 1 65 3 0 4 -20 47 -138 294 l-77 162 -57 1 -56 0 -48 -122z m146 -86 c12
-34 21 -64 19 -66 -2 -2 -32 -7 -67 -11 l-63 -7 21 52 c31 78 51 113 59 104 4
-5 18 -37 31 -72z"/>
<path d="M2558 1850 l3 -230 50 0 50 0 -3 135 c-2 74 -1 135 2 135 3 0 46 -48
95 -106 110 -130 138 -154 177 -154 l30 0 -3 225 -4 225 -51 0 -51 0 4 -137
c4 -93 2 -135 -5 -128 -27 28 -174 219 -184 240 -10 22 -18 25 -62 25 l-51 0
3 -230z"/>
<path d="M3800 1850 l0 -230 175 0 175 0 0 50 0 50 -125 0 -125 0 0 45 0 45
99 0 c107 0 110 2 111 68 0 21 -3 22 -105 22 l-105 0 0 45 0 45 114 0 c124 0
126 1 126 61 l0 29 -170 0 -170 0 0 -230z"/>
<path d="M4353 1850 l2 -230 167 0 166 0 4 51 c4 62 0 64 -87 55 -35 -3 -82
-3 -105 0 l-42 7 4 173 3 174 -57 0 -57 0 2 -230z"/>
<path d="M1834 1500 c-40 -26 -69 -79 -60 -113 10 -39 54 -85 92 -96 26 -7 46
-6 79 6 l45 15 0 54 0 54 -50 0 c-54 0 -62 -10 -30 -37 29 -25 25 -33 -15 -33
-56 0 -75 58 -31 99 22 21 26 22 53 8 26 -14 30 -13 51 3 12 10 22 20 22 23 0
10 -70 37 -97 37 -15 0 -42 -9 -59 -20z"/>
<path d="M2145 1510 c-60 -24 -90 -103 -60 -159 48 -93 198 -68 212 35 12 90
-71 158 -152 124z m79 -72 c31 -44 9 -88 -44 -88 -46 0 -66 55 -33 92 22 25
59 23 77 -4z"/>
<path d="M2390 1406 l0 -116 75 2 c74 3 75 3 75 31 0 26 -2 27 -51 27 l-50 0
2 83 2 82 -26 3 -27 3 0 -115z"/>
<path d="M2620 1405 c0 -114 0 -115 24 -115 20 0 24 6 30 40 6 40 6 40 51 40
41 0 45 2 45 25 0 23 -4 25 -45 25 -38 0 -45 3 -45 20 0 18 7 20 55 20 54 0
55 0 55 30 l0 30 -85 0 -85 0 0 -115z"/>
<path d="M2980 1490 c0 -28 3 -30 35 -30 l35 0 0 -85 0 -85 30 0 30 0 0 85 0
85 29 0 c23 0 30 5 33 25 3 13 3 27 0 30 -3 3 -47 5 -99 5 l-93 0 0 -30z"/>
<path d="M3305 1497 c-76 -43 -86 -108 -26 -168 49 -49 102 -54 150 -14 61 52
60 133 -4 183 -35 28 -70 28 -120 -1z m93 -49 c31 -31 0 -98 -44 -98 -43 0
-57 57 -24 90 23 23 50 26 68 8z"/>
<path d="M3570 1434 c0 -81 1 -87 29 -115 49 -48 126 -35 156 26 20 44 21 165
1 165 -8 0 -21 3 -30 6 -14 5 -16 -4 -16 -64 0 -89 -5 -102 -41 -102 -38 0
-49 24 -49 104 0 64 -1 66 -25 66 -25 0 -25 -1 -25 -86z"/>
<path d="M3862 1405 c3 -105 4 -110 26 -113 19 -3 22 1 22 27 0 44 15 46 51 6
23 -25 41 -35 61 -35 l29 0 -22 39 -21 39 21 21 c11 11 21 32 21 45 0 29 -45
76 -74 77 -11 0 -43 2 -69 3 l-48 2 3 -111z m112 49 c22 -8 20 -31 -3 -44 -28
-14 -51 -12 -57 5 -14 36 17 56 60 39z"/>
<path d="M1200 1400 c-12 -7 -12 -13 -4 -27 10 -16 32 -18 212 -21 170 -2 203
0 216 13 8 9 13 22 10 30 -5 13 -40 15 -213 15 -113 0 -213 -5 -221 -10z"/>
<path d="M4194 1395 c-4 -8 -1 -22 6 -30 19 -22 442 -22 460 0 9 11 10 18 1
29 -9 11 -57 14 -237 15 -193 1 -225 -1 -230 -14z"/>
<path d="M2317 1163 c-4 -3 -7 -39 -7 -80 0 -66 2 -73 20 -73 17 0 20 7 20 40
0 45 14 54 24 15 9 -35 33 -31 50 8 l14 32 1 -47 c1 -41 4 -48 21 -48 18 0 20
7 20 80 0 72 -2 80 -19 80 -11 0 -30 -14 -42 -31 l-22 -32 -26 32 c-25 31 -41
38 -54 24z"/>
<path d="M2530 1163 c0 -3 14 -30 30 -60 17 -29 30 -62 30 -73 0 -11 7 -20 15
-20 9 0 15 9 15 23 0 12 14 48 30 80 l31 57 -23 0 c-14 0 -27 -9 -33 -22 -14
-31 -29 -32 -45 -3 -12 22 -50 36 -50 18z"/>
<path d="M2721 1120 c-12 -27 -24 -63 -27 -80 -6 -26 -4 -30 15 -30 12 0 21 6
21 15 0 10 10 15 30 15 18 0 33 -6 36 -15 6 -14 44 -22 44 -9 0 21 -71 154
-83 154 -8 0 -24 -22 -36 -50z m44 -48 c-22 -5 -27 1 -19 23 7 17 8 17 21 -1
12 -17 12 -19 -2 -22z"/>
<path d="M2882 1093 c3 -65 6 -78 21 -81 14 -3 17 4 17 37 l0 40 38 -41 c23
-24 44 -38 50 -34 8 4 12 36 12 82 0 67 -2 74 -20 74 -17 0 -20 -7 -20 -42 l0
-43 -40 43 c-21 23 -44 42 -50 42 -7 0 -10 -27 -8 -77z"/>
<path d="M3070 1090 c0 -70 2 -80 18 -80 15 0 17 6 14 34 -6 53 3 65 22 29 20
-40 38 -42 57 -5 l14 27 3 -42 c3 -35 7 -43 23 -43 17 0 19 7 19 80 0 78 0 80
-25 80 -18 0 -29 -9 -43 -37 l-19 -37 -24 37 c-13 20 -32 37 -41 37 -16 0 -18
-10 -18 -80z"/>
<path d="M3324 1143 c-6 -15 -21 -51 -32 -79 l-21 -52 21 -5 c14 -4 22 0 25
14 7 24 73 28 73 4 0 -9 9 -15 25 -15 l24 0 -33 78 c-37 86 -63 104 -82 55z
m44 -56 c2 -10 -3 -17 -12 -17 -10 0 -16 9 -16 21 0 24 23 21 28 -4z"/>
<path d="M3480 1090 c0 -62 3 -80 14 -80 8 0 17 11 20 25 4 14 11 25 16 25 5
0 17 -11 26 -25 9 -14 25 -25 35 -25 23 0 24 8 3 31 -15 17 -15 20 4 44 37 46
5 84 -70 85 l-48 0 0 -80z m83 33 c9 -9 -12 -33 -29 -33 -8 0 -14 9 -14 20 0
19 28 28 43 13z"/>
</g>
</svg>
