<?xml version="1.0" ?><!DOCTYPE svg  PUBLIC '-//W3C//DTD SVG 1.1//EN'  'http://www.w3.org/Graphics/SVG/1.1/DTD/svg11.dtd'><svg enable-background="new 0 0 800 800" height="50px" id="Layer_1" version="1.1" viewBox="0 0 800 800" width="50px" xml:space="preserve" xmlns="http://www.w3.org/2000/svg" xmlns:xlink="http://www.w3.org/1999/xlink"><g><path d="M565.023,245.792H235.986c-25.108,0-45.535,20.423-45.535,45.531v340.78   c0,25.109,20.426,45.53,45.535,45.53h329.038c25.11,0,45.535-20.421,45.535-45.53v-340.78   C610.559,266.214,590.134,245.792,565.023,245.792z M580.075,632.103c0,8.294-6.754,15.047-15.052,15.047H235.986   c-8.297,0-15.051-6.753-15.051-15.047v-340.78c0-8.293,6.754-15.047,15.051-15.047h329.038c8.298,0,15.052,6.753,15.052,15.047   V632.103z" fill="#ff8000"/><path d="M258.207,698.583c-21.387,0-38.79,17.403-38.79,38.795c0,21.391,17.402,38.795,38.79,38.795   c21.393,0,38.795-17.404,38.795-38.795C297.001,715.986,279.599,698.583,258.207,698.583z" fill="#ff8000"/><path d="M540.825,698.583c-21.388,0-38.79,17.403-38.79,38.795c0,21.391,17.402,38.795,38.79,38.795   c21.393,0,38.794-17.404,38.794-38.795C579.619,715.986,562.218,698.583,540.825,698.583z" fill="#ff8000"/><path d="M590.792,200.813c-6.831-1.564-38.615-2.926-222.993-2.347l-8.068,0.017l-9.33-0.034   c-92.946-0.426-132.783,0.238-142.063,2.364c-53.88,12.299-67.297,62.033-66.859,86.605c0.144,8.327,6.941,14.969,15.234,14.969   c0.089,0,0.183,0,0.272,0c8.417-0.153,15.119-7.093,14.97-15.505c-0.03-1.897-0.319-46.425,43.064-56.333   c7.562-1.438,53.071-1.991,135.24-1.616l1.91,0.009c0.148,0,0.289,0.042,0.438,0.042l7.115-0.017l5.074,0.017   c0.106,0,0.204-0.025,0.311-0.034h2.785c167.09-0.536,209.942,0.612,216.116,1.583c43.064,9.832,44.018,54.512,44.039,56.639   c0.013,8.386,6.805,15.191,15.199,15.216c0.013,0,0.029,0,0.043,0c8.399,0,15.216-6.795,15.241-15.199   C658.599,262.675,644.531,213.079,590.792,200.813z" fill="#ff8000"/><path d="M319.545,54.312h26.725V164.52c0,8.42,6.826,15.243,15.242,15.243c8.417,0,15.243-6.822,15.243-15.243   V54.312h47.903V164.52c0,8.42,6.826,15.243,15.242,15.243s15.243-6.822,15.243-15.243V54.312h25.696   c8.416,0,15.241-6.822,15.241-15.243c0-8.412-6.825-15.242-15.241-15.242H319.545c-8.416,0-15.242,6.83-15.242,15.242   C304.304,47.49,311.129,54.312,319.545,54.312z" fill="#ff8000"/></g></svg>